# xmcd
#
# Track frame offsets: 
#        150
#        15260
#        25817
#        44025
#        55435
#        69982
#        81482
#        95227
#        106750
#        121512
#        133955
#
# Disc length: 1959 seconds
#
# Revision: 0
# Processed by: cddbd v1.4PL0 Copyright (c) Steve Scherf et al.
# Submitted via: ExactAudioCopy v0.90b2
#
DISCID=9207a50b
DTITLE=Glen Campbell - That Christmas Feeling
DYEAR=1900
DGENRE=Country
TTITLE0=Christmas Is For Children
TTITLE1=Old Toy Trains
TTITLE2=Little Altar Boy
TTITLE3=It Must Be Getting Close To Christmas
TTITLE4=Have Yourself A Merry Little Christmas
TTITLE5=Blue Christmas
TTITLE6=The Christmas Song (Merry Christmas To You)
TTITLE7=Pretty Paper
TTITLE8=There's No Place Like Home
TTITLE9=I'll Be Home For Christmas
TTITLE10=Christmas Day
EXTD=
EXTT0=
EXTT1=
EXTT2=
EXTT3=
EXTT4=
EXTT5=
EXTT6=
EXTT7=
EXTT8=
EXTT9=
EXTT10=
PLAYORDER=
